<?xml version="1.0" encoding="iso-8859-1"?>
<!-- Uploaded to: SVG Repo, www.svgrepo.com, Generator: SVG Repo Mixer Tools -->
<svg version="1.1" id="Layer_1" xmlns="http://www.w3.org/2000/svg" xmlns:xlink="http://www.w3.org/1999/xlink" 
	 viewBox="0 0 512 512" xml:space="preserve">
<path style="fill:#E0E0E2;" d="M324.542,246.781c40.848-23.679,68.324-67.869,68.324-118.484H119.135
	c0,50.613,27.477,94.804,68.324,118.484c7.09,4.11,7.091,14.374,0.006,18.492c-40.695,23.651-68.058,67.714-68.058,118.172h273.186
	c0-50.458-27.363-94.522-68.058-118.172C317.45,261.155,317.451,250.891,324.542,246.781z"/>
<path style="fill:#CBA400;" d="M213.064,303.898c-7.516,0-14.806,2.693-20.44,7.665c-12.187,10.754-21.63,24.548-27.122,40.188
	h180.997c-5.493-15.64-14.935-29.434-27.122-40.188c-5.636-4.973-12.925-7.665-20.44-7.665h-27.794v-0.121h-30.283v0.121H213.064z"
	/>
<path style="fill:#FED322;" d="M271.143,223.261c30.662-4.889,56.518-24.358,70.217-51.062H170.642
	c13.698,26.703,39.555,46.173,70.217,51.062v88.079h30.283v-88.079H271.143z"/>
<g>
	<rect x="119.132" y="128.296" style="fill:#C6C5CB;" width="273.731" height="18.176"/>
	<rect x="119.132" y="365.274" style="fill:#C6C5CB;" width="273.731" height="18.176"/>
</g>
<g>
	<rect x="88.555" y="76.714" style="fill:#3340DC;" width="334.885" height="51.582"/>
	<rect x="88.555" y="383.447" style="fill:#3340DC;" width="334.885" height="51.582"/>
</g>
<g>
	<rect x="88.555" y="418.392" style="fill:#2732D9;" width="334.885" height="16.638"/>
	<rect x="88.555" y="76.558" style="fill:#2732D9;" width="334.885" height="16.638"/>
</g>
<g>
	<rect x="255.997" y="94.668" style="fill:#FFFFFF;" width="132.758" height="15.675"/>
	<rect x="123.239" y="401.4" style="fill:#FFFFFF;" width="132.758" height="15.675"/>
</g>
<g>
	<path style="fill:#010101;" d="M328.472,253.562c42.281-24.511,69.346-68.991,71.998-117.427h30.81V68.877H80.72v67.258h30.81
		c2.652,48.435,29.717,92.916,71.998,117.427c1.228,0.712,1.412,1.849,1.412,2.463c0,0.617-0.183,1.757-1.414,2.471
		c-42.114,24.475-69.074,68.834-71.724,117.11H80.72v67.258h350.56v-67.258h-31.083c-2.65-48.276-29.609-92.636-71.724-117.11
		c-1.231-0.716-1.414-1.855-1.414-2.471C327.06,255.411,327.244,254.273,328.472,253.562z M96.396,84.552h319.21v35.908h-14.902
		H111.298H96.396C96.396,120.46,96.396,84.552,96.396,84.552z M415.605,427.19H96.396v-35.908h15.175h288.861h15.175v35.908H415.605
		z M320.597,272.049c37.304,21.68,61.288,60.848,63.917,103.559H127.486c2.629-42.711,26.613-81.879,63.917-103.559
		c5.772-3.354,9.216-9.349,9.212-16.033c-0.004-6.683-3.453-12.67-9.226-16.016c-37.462-21.716-61.545-61.003-64.177-103.865
		h257.575c-2.632,42.862-26.715,82.148-64.177,103.865c-5.773,3.346-9.222,9.334-9.226,16.016
		C311.381,262.701,314.825,268.695,320.597,272.049z"/>
	<path style="fill:#010101;" d="M348.333,175.775l5.855-11.415H157.813l5.855,11.415c14.05,27.389,39.656,47.18,69.352,53.948
		v66.337h-19.957c-9.491,0-18.592,3.418-25.626,9.627c-13.334,11.767-23.477,26.798-29.33,43.468l-3.665,10.434h203.116
		l-3.665-10.434c-5.854-16.67-15.996-31.7-29.33-43.468c-7.034-6.207-16.135-9.627-25.626-9.627h-19.957v-66.337
		C308.676,222.957,334.282,203.165,348.333,175.775z M298.937,311.736c5.668,0,11.086,2.025,15.255,5.705
		c8.468,7.472,15.418,16.489,20.465,26.473H177.344c5.046-9.985,11.997-19.001,20.464-26.473c4.169-3.68,9.586-5.705,15.255-5.705
		h35.632v-95.162l-6.603-1.052c-23.144-3.69-43.849-16.643-57.477-35.486h142.769c-13.628,18.842-34.333,31.795-57.477,35.486
		l-6.603,1.052v95.162H298.937z"/>
	<polygon style="fill:#010101;" points="169.593,18.471 188.074,0 165.735,0 139.427,26.308 165.735,52.617 188.074,52.617 
		169.593,34.146 477.721,34.146 477.721,477.588 395.889,477.588 395.889,493.263 493.396,493.263 493.396,18.471 	"/>
	<polygon style="fill:#010101;" points="323.435,458.851 342.183,477.588 34.279,477.588 34.279,34.146 116.112,34.146 
		116.112,18.471 18.604,18.471 18.604,493.263 342.183,493.263 323.435,512 346,512 372.574,485.425 346,458.851 	"/>
	<rect x="46.747" y="328.385" style="fill:#010101;" width="15.675" height="52.251"/>
	<rect x="46.747" y="56.671" style="fill:#010101;" width="15.675" height="52.251"/>
	<rect x="46.747" y="396.311" style="fill:#010101;" width="15.675" height="52.251"/>
	<rect x="46.747" y="124.597" style="fill:#010101;" width="15.675" height="52.251"/>
	<rect x="46.747" y="260.459" style="fill:#010101;" width="15.675" height="52.251"/>
	<rect x="46.747" y="192.533" style="fill:#010101;" width="15.675" height="52.251"/>
	<rect x="449.576" y="328.385" style="fill:#010101;" width="15.675" height="52.251"/>
	<rect x="449.576" y="192.533" style="fill:#010101;" width="15.675" height="52.251"/>
	<rect x="449.576" y="56.671" style="fill:#010101;" width="15.675" height="52.251"/>
	<rect x="449.576" y="396.311" style="fill:#010101;" width="15.675" height="52.251"/>
	<rect x="449.576" y="124.597" style="fill:#010101;" width="15.675" height="52.251"/>
	<rect x="449.576" y="260.459" style="fill:#010101;" width="15.675" height="52.251"/>
</g>
</svg>